<?xml version="1.0" encoding="UTF-8"?>
<!DOCTYPE svg PUBLIC "-//W3C//DTD SVG 1.1//EN" "http://www.w3.org/Graphics/SVG/1.1/DTD/svg11.dtd">
<!-- Creator: CorelDRAW X8 -->
<svg xmlns="http://www.w3.org/2000/svg" xml:space="preserve" width="297mm" height="80mm" version="1.1" style="shape-rendering:geometricPrecision; text-rendering:geometricPrecision; image-rendering:optimizeQuality; fill-rule:evenodd; clip-rule:evenodd"
viewBox="0 0 29700 8000"
 xmlns:xlink="http://www.w3.org/1999/xlink">
 <defs>
  <style type="text/css">
   <![CDATA[
    .fil1 {fill:#FEFEFE}
    .fil0 {fill:#FEFEFE;fill-rule:nonzero}
   ]]>
  </style>
 </defs>
 <g id="Capa_x0020_1">
  <metadata id="CorelCorpID_0Corel-Layer"/>
  <path class="fil0" d="M26887 4911l-525 1994 -399 0 1540 -5720 382 0 1530 5720 -399 0 -518 -1994 -1611 0zm802 -3243c-213,1008 -529,1873 -691,2911l1382 0c-162,-1038 -478,-1903 -691,-2911z"/>
  <g id="_2447687925872">
   <path class="fil1" d="M3985 7118l0 -5789 -348 0 0 2913c-2,-2 -4,-6 -4,-5l-17 -21c-8,-12 -14,-21 -22,-34l-130 -180c-65,-82 -128,-150 -201,-223 -62,-61 -59,-33 -59,-148l1 -2302 -348 0 0 2133c-196,-103 -207,-124 -436,-212 -336,-129 -594,-136 -955,-136l0 -1832 -348 0 0 2208c128,0 235,-29 357,-28 364,1 659,19 984,182 538,269 888,650 1085,1236 69,203 93,412 93,687 0,517 0,1034 0,1551l348 0z"/>
   <path class="fil1" d="M1118 3960l0 3101 348 0 0 -2810 150 -9c231,0 457,73 626,173l185 135c97,94 148,141 227,261 146,224 203,466 203,766l0 1541 348 0 0 -1494c0,-422 -83,-800 -332,-1106 -18,-22 -29,-37 -47,-57 -385,-432 -885,-636 -1480,-545 -63,10 -164,43 -228,44z"/>
   <polygon class="fil1" points="235,7061 583,7061 583,1282 235,1282 "/>
  </g>
  <path class="fil0" d="M20154 7097l389 0 0 -2623 722 0c663,22 1003,333 1179,1021 98,382 42,1175 42,1602l407 0c-13,-465 22,-1272 -84,-1693 -146,-579 -408,-943 -822,-1067l0 -17c637,-235 1070,-712 1070,-1491 0,-409 -144,-792 -392,-1037 -305,-296 -738,-457 -1417,-457 -356,0 -779,41 -1094,118l0 5644zm389 -5365c128,-34 376,-67 689,-67 882,0 1426,389 1426,1231 0,763 -551,1263 -1383,1263l-732 0 0 -2427z"/>
  <path class="fil0" d="M13722 7065c194,19 483,53 916,53 705,0 1290,-154 1648,-536 253,-272 414,-635 414,-1102 0,-900 -635,-1350 -1169,-1477l0 -17c567,-204 967,-678 967,-1282 0,-400 -128,-712 -349,-941 -296,-298 -746,-450 -1391,-450 -392,0 -748,51 -1036,118l0 5634zm389 -2884l594 0c859,0 1588,399 1588,1306 0,934 -721,1292 -1578,1292 -255,0 -459,-10 -604,-43l0 -2555zm0 -2478c111,-26 306,-50 621,-50 849,0 1357,339 1357,1077 0,652 -525,1129 -1290,1129l-688 0 0 -2156z"/>
  <polygon class="fil0" points="10087,3893 8033,3893 8033,1695 10215,1695 10215,1355 7643,1355 7643,7076 10342,7076 10342,6737 8033,6737 8033,4233 10087,4233 "/>
 </g>
</svg>
