<svg xmlns="http://www.w3.org/2000/svg" xmlns:xlink="http://www.w3.org/1999/xlink" width="2000" zoomAndPan="magnify" viewBox="0 0 1500 1499.999933" height="2000" preserveAspectRatio="xMidYMid meet" version="1.0"><path fill="#F9F4F4" d="M 760.25 1309.21875 L 729.644531 1309.21875 C 727.355469 1309.21875 725.25 1308.496094 723.621094 1306.871094 C 721.996094 1305.242188 721.210938 1303.195312 721.210938 1300.964844 C 721.210938 1298.675781 721.996094 1296.566406 723.621094 1294.941406 C 725.25 1293.316406 727.355469 1292.59375 729.644531 1292.59375 L 808.679688 1292.59375 C 810.96875 1292.59375 813.078125 1293.316406 814.703125 1294.941406 C 816.332031 1296.566406 817.113281 1298.675781 817.113281 1300.964844 C 817.113281 1303.195312 816.332031 1305.242188 814.703125 1306.871094 C 813.078125 1308.496094 810.96875 1309.21875 808.679688 1309.21875 L 777.898438 1309.21875 L 777.898438 1401.929688 C 777.898438 1404.277344 777.054688 1406.386719 775.429688 1408.132812 C 773.742188 1409.878906 771.511719 1410.785156 769.101562 1410.785156 C 766.695312 1410.785156 764.523438 1409.878906 762.839844 1408.132812 C 761.152344 1406.445312 760.25 1404.335938 760.25 1401.929688 Z M 844.703125 1309.820312 L 844.703125 1342.773438 L 886.210938 1342.773438 C 888.621094 1342.773438 890.789062 1343.554688 892.476562 1345.300781 C 894.160156 1346.988281 895.003906 1349.097656 895.003906 1351.445312 C 895.003906 1353.796875 894.160156 1355.964844 892.476562 1357.589844 C 890.789062 1359.339844 888.621094 1360.121094 886.210938 1360.121094 L 844.703125 1360.121094 L 844.703125 1393.496094 L 902.957031 1393.496094 C 905.304688 1393.496094 907.414062 1394.335938 909.101562 1396.023438 C 910.789062 1397.652344 911.75 1399.699219 911.75 1402.046875 C 911.75 1404.519531 910.847656 1406.746094 909.039062 1408.375 C 907.355469 1409.941406 905.246094 1410.785156 902.957031 1410.785156 L 835.847656 1410.785156 C 833.441406 1410.785156 831.269531 1409.941406 829.585938 1408.253906 C 827.835938 1406.507812 827.054688 1404.335938 827.054688 1401.929688 L 827.054688 1301.386719 C 827.054688 1298.976562 827.835938 1296.808594 829.585938 1295.121094 C 831.269531 1293.375 833.441406 1292.59375 835.847656 1292.59375 L 902.957031 1292.59375 C 905.246094 1292.59375 907.355469 1293.375 909.039062 1294.941406 C 910.847656 1296.566406 911.75 1298.796875 911.75 1301.265625 C 911.75 1303.617188 910.789062 1305.726562 909.101562 1307.351562 C 907.414062 1308.976562 905.304688 1309.820312 902.957031 1309.820312 Z M 954.160156 1350.363281 L 922.65625 1306.507812 C 921.328125 1304.761719 920.667969 1302.710938 920.847656 1300.542969 C 920.96875 1298.4375 921.75 1296.566406 923.257812 1295.003906 C 924.824219 1293.316406 926.933594 1292.59375 929.222656 1292.59375 C 931.992188 1292.59375 934.402344 1293.675781 936.089844 1295.84375 L 936.148438 1295.84375 L 965.96875 1337.171875 L 996.269531 1295.84375 L 996.328125 1295.84375 C 998.015625 1293.675781 1000.425781 1292.59375 1003.136719 1292.59375 C 1005.484375 1292.59375 1007.652344 1293.375 1009.21875 1295.121094 C 1010.605469 1296.6875 1011.386719 1298.617188 1011.570312 1300.664062 C 1011.691406 1302.773438 1011.207031 1304.761719 1009.941406 1306.507812 L 977.59375 1350.421875 L 1010.90625 1396.566406 C 1012.230469 1398.253906 1012.835938 1400.300781 1012.773438 1402.46875 C 1012.714844 1404.640625 1011.929688 1406.566406 1010.484375 1408.191406 C 1008.917969 1410 1006.691406 1410.785156 1004.28125 1410.785156 C 1003.074219 1410.785156 1001.871094 1410.480469 1000.726562 1410 C 999.460938 1409.457031 998.4375 1408.613281 997.535156 1407.589844 L 997.472656 1407.53125 L 965.847656 1363.734375 L 933.5 1407.832031 L 933.378906 1408.011719 C 931.691406 1409.820312 929.460938 1410.785156 926.933594 1410.785156 C 924.644531 1410.785156 922.414062 1410 920.789062 1408.3125 C 919.34375 1406.746094 918.558594 1404.820312 918.4375 1402.710938 C 918.257812 1400.421875 918.980469 1398.3125 920.304688 1396.566406 Z M 1053.976562 1309.21875 L 1023.316406 1309.21875 C 1021.027344 1309.21875 1018.917969 1308.496094 1017.292969 1306.871094 C 1015.726562 1305.242188 1014.941406 1303.195312 1014.941406 1300.964844 C 1014.941406 1298.675781 1015.664062 1296.566406 1017.292969 1294.941406 C 1018.917969 1293.316406 1021.027344 1292.59375 1023.316406 1292.59375 L 1102.410156 1292.59375 C 1104.699219 1292.59375 1106.808594 1293.316406 1108.433594 1294.941406 C 1110.0625 1296.566406 1110.785156 1298.675781 1110.785156 1300.964844 C 1110.785156 1303.195312 1110 1305.242188 1108.433594 1306.871094 C 1106.808594 1308.496094 1104.699219 1309.21875 1102.410156 1309.21875 L 1071.628906 1309.21875 L 1071.628906 1401.929688 C 1071.628906 1404.277344 1070.785156 1406.386719 1069.160156 1408.132812 C 1067.410156 1409.878906 1065.242188 1410.785156 1062.773438 1410.785156 C 1060.363281 1410.785156 1058.253906 1409.878906 1056.570312 1408.132812 C 1054.882812 1406.445312 1053.976562 1404.335938 1053.976562 1401.929688 Z M 1129.578125 1410.785156 C 1127.167969 1410.785156 1124.941406 1409.941406 1123.253906 1408.253906 C 1121.566406 1406.507812 1120.722656 1404.335938 1120.722656 1401.929688 L 1120.722656 1301.386719 C 1120.722656 1298.976562 1121.566406 1296.808594 1123.253906 1295.121094 C 1124.941406 1293.375 1127.167969 1292.59375 1129.578125 1292.59375 C 1131.988281 1292.59375 1134.15625 1293.375 1135.84375 1295.121094 C 1137.589844 1296.808594 1138.375 1298.976562 1138.375 1301.386719 L 1138.375 1401.929688 C 1138.375 1404.335938 1137.589844 1406.507812 1135.84375 1408.253906 C 1134.15625 1409.941406 1131.988281 1410.785156 1129.578125 1410.785156 Z M 1178.132812 1393.675781 L 1230.78125 1393.675781 C 1233.132812 1393.675781 1235.238281 1394.457031 1236.925781 1396.023438 C 1238.734375 1397.652344 1239.636719 1399.820312 1239.636719 1402.230469 C 1239.636719 1404.640625 1238.734375 1406.746094 1236.925781 1408.433594 C 1235.238281 1409.941406 1233.132812 1410.785156 1230.78125 1410.785156 L 1169.335938 1410.785156 C 1166.929688 1410.785156 1164.820312 1409.941406 1163.132812 1408.253906 C 1161.386719 1406.566406 1160.480469 1404.398438 1160.480469 1401.929688 L 1160.480469 1301.386719 C 1160.480469 1298.976562 1161.386719 1296.871094 1163.074219 1295.183594 C 1164.757812 1293.496094 1166.929688 1292.59375 1169.335938 1292.59375 C 1171.6875 1292.59375 1173.855469 1293.496094 1175.542969 1295.183594 C 1177.230469 1296.871094 1178.132812 1298.976562 1178.132812 1301.386719 Z M 1178.132812 1393.675781 " fill-opacity="1" fill-rule="evenodd"/><path fill="#F9F4F4" d="M 479.410156 1048.140625 C 476.214844 1048.140625 459.289062 1052.175781 454.410156 1053.921875 C 396.941406 1074.402344 336.761719 1086.210938 282.546875 1113.199219 C 278.691406 1115.125 280.980469 1121.269531 281.097656 1123.679688 C 295.496094 1144.644531 307.605469 1142.59375 337.664062 1132.292969 C 365.554688 1122.113281 425.433594 1109.582031 435.496094 1106.449219 C 481.578125 1092.234375 546.335938 1047.476562 479.410156 1048.140625 Z M 479.410156 1048.140625 " fill-opacity="1" fill-rule="evenodd"/><path fill="#F9F4F4" d="M 594.46875 711.335938 C 612.960938 699.046875 669.40625 674.832031 647.597656 648.328125 C 614.46875 634.410156 591.9375 679.832031 560.25 691.097656 C 554.347656 693.203125 532.722656 701.636719 527 708.988281 C 505.492188 736.515625 477.480469 786.699219 514.949219 787.78125 C 556.15625 782.121094 568.867188 733.746094 594.46875 711.335938 Z M 594.46875 711.335938 " fill-opacity="1" fill-rule="evenodd"/><path fill="#F9F4F4" d="M 694.527344 951.332031 C 627.902344 960.128906 502.242188 1067.898438 628.683594 1028.921875 C 634.769531 1027.113281 654.464844 1021.996094 658.019531 1020.96875 C 690.550781 1011.875 753.921875 956.09375 694.527344 951.332031 Z M 694.527344 951.332031 " fill-opacity="1" fill-rule="evenodd"/><path fill="#F9F4F4" d="M 1059.21875 588.027344 C 1088.617188 568.207031 1040.964844 555.074219 1007.953125 543.027344 C 997.113281 539.050781 969.160156 533.992188 963.074219 535.195312 C 818.140625 566.460938 1011.628906 592.605469 1059.21875 588.027344 Z M 1059.21875 588.027344 " fill-opacity="1" fill-rule="evenodd"/><path fill="#F9F4F4" d="M 408.808594 1160.96875 C 383.988281 1183.378906 466.578125 1205.96875 492.179688 1197.234375 C 571.816406 1171.089844 475.011719 1151.390625 428.207031 1154.34375 C 424.410156 1154.582031 411.039062 1158.921875 408.808594 1160.96875 Z M 408.808594 1160.96875 " fill-opacity="1" fill-rule="evenodd"/><path fill="#F9F4F4" d="M 685.070312 1183.917969 C 664.527344 1182.894531 644.046875 1182.113281 624.648438 1181.269531 C 616.695312 1182.292969 609.707031 1182.59375 603.082031 1184.039062 C 592.660156 1186.269531 587.179688 1201.089844 594.648438 1207.292969 C 601.09375 1212.472656 608.804688 1217.835938 616.515625 1219.160156 C 630.851562 1221.570312 645.730469 1222.414062 660.371094 1221.691406 C 671.453125 1221.085938 682.539062 1217.414062 693.261719 1214.28125 C 696.515625 1213.257812 700.007812 1210.003906 701.695312 1206.871094 C 705.488281 1199.761719 694.226562 1184.402344 685.070312 1183.917969 Z M 685.070312 1183.917969 " fill-opacity="1" fill-rule="evenodd"/><path fill="#F9F4F4" d="M 395.375 972.777344 C 397.421875 971.753906 404.050781 964.527344 404.953125 962.296875 C 414.890625 939.226562 426.878906 917.175781 437.964844 894.347656 C 439.351562 891.394531 440.375 882.359375 439.46875 880.914062 C 407.0625 832.78125 338.6875 999.042969 395.375 972.777344 Z M 395.375 972.777344 " fill-opacity="1" fill-rule="evenodd"/><path fill="#F9F4F4" d="M 1220.480469 636.277344 C 1216.082031 570.4375 1111.988281 542.125 1175.363281 623.445312 C 1188.253906 635.617188 1206.6875 658.6875 1220.480469 636.277344 Z M 1220.480469 636.277344 " fill-opacity="1" fill-rule="evenodd"/><path fill="#F9F4F4" d="M 1246.988281 697.179688 C 1218.734375 686.640625 1199.457031 711.519531 1181.085938 730.070312 C 1157.832031 739.046875 1135.179688 744.648438 1124.820312 773.082031 C 1139.339844 822.660156 1258.734375 732.722656 1246.988281 697.179688 Z M 1246.988281 697.179688 " fill-opacity="1" fill-rule="evenodd"/><path fill="#F9F4F4" d="M 1134.398438 877.597656 C 1115.183594 858.382812 1092.171875 843.324219 1065.242188 832.480469 C 1038.316406 821.636719 1008.859375 816.214844 976.871094 816.214844 C 951.691406 816.214844 927.234375 818.445312 903.257812 822.960938 C 879.34375 827.417969 856.03125 835.25 833.378906 846.574219 L 830.425781 846.574219 L 830.425781 574.472656 C 830.425781 573.570312 829.585938 571.460938 827.898438 568.207031 C 826.152344 564.953125 824.824219 562.605469 823.800781 561.21875 C 819.824219 555.316406 815.367188 551.519531 810.488281 550.136719 C 805.609375 548.6875 799.644531 547.90625 792.71875 547.90625 C 784.824219 547.90625 777.054688 550.316406 769.464844 555.316406 C 761.875 560.253906 758.019531 567.0625 758.019531 576.039062 L 758.019531 1225.246094 C 758.019531 1234.097656 762.054688 1241.386719 770.1875 1247.113281 C 778.320312 1252.773438 786.152344 1255.605469 793.5625 1255.605469 C 803.378906 1255.605469 811.390625 1252.652344 817.597656 1246.808594 C 823.800781 1240.90625 828.257812 1233.679688 831.332031 1225.363281 L 833.558594 1225.363281 C 857.234375 1236.75 880.789062 1244.519531 904.160156 1249.039062 C 927.535156 1253.496094 952.113281 1255.605469 977.773438 1255.605469 C 1009.402344 1255.605469 1038.496094 1250.242188 1065.421875 1239.339844 C 1092.351562 1228.496094 1115.421875 1213.378906 1134.578125 1193.859375 C 1153.796875 1174.339844 1168.855469 1151.210938 1179.699219 1124.28125 C 1190.542969 1097.355469 1195.964844 1067.898438 1195.964844 1035.910156 C 1195.964844 1003.441406 1190.542969 973.683594 1179.699219 946.875 C 1168.613281 919.828125 1153.613281 896.753906 1134.398438 877.597656 Z M 1111.144531 1095.726562 C 1104.039062 1113.5 1093.976562 1128.738281 1081.207031 1141.632812 C 1068.375 1154.460938 1053.074219 1164.523438 1035.242188 1171.628906 C 1017.472656 1178.738281 998.015625 1182.414062 976.871094 1182.414062 C 965.484375 1182.414062 953.800781 1181.871094 941.75 1180.847656 C 929.644531 1179.824219 917.65625 1177.835938 905.847656 1174.582031 C 894.101562 1171.328125 882.835938 1166.933594 872.234375 1161.269531 C 861.691406 1155.546875 852.476562 1148.078125 844.523438 1138.738281 C 842.113281 1135.246094 839.222656 1130.789062 835.96875 1125.425781 C 832.714844 1120.003906 831.210938 1115.066406 831.210938 1110.609375 L 831.210938 959.644531 C 831.210938 957.597656 832.355469 954.585938 834.585938 950.429688 C 836.8125 946.210938 838.441406 942.898438 839.34375 940.429688 C 845.730469 929.585938 854.28125 920.851562 864.824219 914.164062 C 875.425781 907.417969 886.992188 902.359375 899.582031 898.625 C 912.171875 894.949219 924.945312 892.417969 938.078125 891.214844 C 951.148438 889.949219 963.378906 889.347656 974.640625 889.347656 C 996.75 889.347656 1016.871094 892.839844 1034.882812 899.707031 C 1052.832031 906.636719 1068.375 916.453125 1081.507812 929.285156 C 1094.578125 942.054688 1104.519531 957.597656 1111.445312 975.910156 C 1118.375 994.164062 1121.808594 1014.40625 1121.808594 1036.511719 C 1121.808594 1058.257812 1118.253906 1077.957031 1111.144531 1095.726562 Z M 1111.144531 1095.726562 " fill-opacity="1" fill-rule="evenodd"/><path fill="#F9F4F4" d="M 230.195312 1084.101562 C 218.628906 1084.765625 211.761719 1093.199219 214.171875 1104.582031 C 215.316406 1109.765625 217.484375 1114.945312 220.316406 1119.402344 C 231.703125 1137.054688 231.882812 1139.460938 249.171875 1151.089844 C 249.414062 1151.269531 249.957031 1151.148438 249.957031 1151.148438 C 251.28125 1145.003906 260.195312 1133.679688 254.773438 1128.800781 C 246.761719 1121.632812 239.773438 1113.5 234.050781 1104.042969 C 259.535156 1109.824219 298.085938 1142.355469 304.171875 1158.980469 C 299.59375 1157.535156 295.796875 1156.210938 290.4375 1154.460938 C 289.53125 1159.945312 287.96875 1164.945312 287.0625 1170.246094 C 286.582031 1173.378906 287.664062 1175.003906 290.738281 1175.96875 C 295.316406 1177.535156 300.375 1178.859375 304.171875 1181.628906 C 402.964844 1253.617188 501.699219 1325.84375 600.3125 1398.191406 C 606.335938 1402.652344 612.839844 1403.433594 620.25 1405 C 617.058594 1398.074219 614.828125 1391.867188 609.105469 1387.109375 C 521.457031 1314.339844 433.929688 1241.507812 346.460938 1168.617188 C 334.832031 1158.921875 322.964844 1149.703125 313.808594 1136.992188 C 299.292969 1116.753906 279.292969 1102.292969 257.183594 1091.089844 C 248.75 1086.875 239.957031 1083.558594 230.195312 1084.101562 Z M 230.195312 1084.101562 " fill-opacity="1" fill-rule="evenodd"/><path fill="#F9F4F4" d="M 273.570312 1344.699219 C 277.605469 1341.929688 279.894531 1333.011719 279.171875 1327.230469 C 272.363281 1271.628906 268.207031 1216.390625 286.703125 1162.050781 C 287.484375 1159.523438 287.304688 1155.125 285.679688 1153.5 C 278.570312 1146.210938 270.738281 1139.582031 263.085938 1132.714844 C 261.402344 1134.644531 260.679688 1135.125 260.378906 1135.847656 C 259.050781 1138.800781 257.726562 1141.75 256.582031 1144.703125 C 232.96875 1207.472656 236.582031 1271.871094 245.859375 1336.566406 C 246.339844 1340.121094 250.4375 1345.363281 253.570312 1345.964844 C 260.074219 1347.109375 268.570312 1347.894531 273.570312 1344.699219 Z M 273.570312 1344.699219 " fill-opacity="1" fill-rule="evenodd"/><path fill="#F9F4F4" d="M 310.292969 286.804688 L 256.527344 286.804688 C 251.585938 286.804688 247.011719 285.109375 243.472656 281.570312 C 240.007812 278.101562 238.308594 273.675781 238.308594 268.808594 C 238.308594 263.792969 239.933594 259.222656 243.472656 255.753906 C 247.011719 252.214844 251.585938 250.519531 256.527344 250.519531 L 402.414062 250.519531 C 407.355469 250.519531 411.925781 252.214844 415.46875 255.753906 C 419.007812 259.222656 420.703125 263.792969 420.703125 268.808594 C 420.703125 273.675781 418.933594 278.101562 415.46875 281.570312 C 411.925781 285.109375 407.355469 286.804688 402.414062 286.804688 L 348.425781 286.804688 L 348.425781 454.964844 C 348.425781 460.054688 346.582031 464.625 343.113281 468.3125 C 339.425781 472.148438 334.632812 474.066406 329.324219 474.066406 C 324.160156 474.066406 319.511719 472.074219 315.898438 468.460938 C 312.285156 464.773438 310.292969 460.199219 310.292969 454.964844 Z M 540.554688 384.308594 L 578.390625 444.785156 C 582.226562 450.90625 583.699219 457.988281 580.160156 464.625 C 576.691406 471.265625 570.054688 474.066406 562.753906 474.066406 C 559.140625 474.066406 555.597656 473.328125 552.5 471.265625 C 549.921875 469.566406 547.855469 467.207031 546.378906 464.699219 L 501.613281 393.378906 L 471.59375 393.378906 L 471.59375 454.964844 C 471.59375 460.199219 469.824219 464.921875 466.136719 468.609375 C 462.449219 472.296875 457.726562 474.066406 452.566406 474.066406 C 447.328125 474.066406 442.609375 472.296875 438.921875 468.609375 C 435.308594 464.921875 433.464844 460.199219 433.464844 454.964844 L 433.464844 269.546875 C 433.464844 264.382812 435.234375 259.664062 438.921875 255.976562 C 442.609375 252.289062 447.328125 250.519531 452.566406 250.519531 L 501.832031 250.519531 C 515.328125 250.519531 528.382812 253.246094 540.257812 259.589844 C 551.617188 265.636719 560.6875 274.195312 567.253906 285.257812 C 574.113281 296.761719 577.136719 309.523438 577.136719 322.871094 C 577.136719 335.851562 574.039062 348.242188 567.253906 359.378906 C 560.6875 370.074219 551.617188 378.40625 540.554688 384.308594 Z M 736.589844 425.019531 L 646.316406 425.019531 L 630.828125 462.339844 C 629.28125 465.953125 626.847656 469.050781 623.527344 471.117188 C 620.429688 473.109375 616.890625 474.066406 613.203125 474.066406 C 593.878906 474.066406 588.789062 463.371094 595.871094 447.074219 L 673.457031 262.984375 C 676.703125 255.238281 683.046875 250.519531 691.527344 250.519531 C 700.007812 250.519531 706.132812 255.386719 709.375 262.984375 L 787.1875 447.367188 C 789.769531 453.414062 789.398438 459.683594 785.859375 465.289062 C 782.246094 470.894531 776.566406 474.066406 769.855469 474.066406 C 766.167969 474.066406 762.625 473.109375 759.527344 471.117188 C 756.136719 468.976562 753.554688 466.027344 752.007812 462.265625 Z M 913.75 412.628906 L 988.828125 260.695312 C 992.148438 253.984375 998.566406 250.519531 1005.941406 250.519531 C 1011.03125 250.519531 1015.675781 252.363281 1019.289062 255.976562 C 1022.902344 259.664062 1024.75 264.382812 1024.75 269.546875 L 1024.75 454.964844 C 1024.75 460.054688 1022.902344 464.699219 1019.4375 468.3125 C 1015.824219 472.074219 1011.105469 474.066406 1005.941406 474.066406 C 1000.703125 474.066406 995.910156 472.148438 992.222656 468.460938 C 988.535156 464.773438 986.617188 460.128906 986.617188 454.964844 L 986.617188 343.523438 L 929.972656 459.390625 C 926.730469 466.027344 920.3125 469.347656 913.085938 469.347656 C 905.191406 469.347656 899.21875 465.070312 895.753906 458.136719 L 839.332031 345.21875 L 839.332031 454.964844 C 839.332031 460.128906 837.339844 464.847656 833.726562 468.460938 C 830.039062 472.074219 825.390625 474.066406 820.230469 474.066406 C 815.066406 474.066406 810.417969 472.074219 806.804688 468.460938 C 803.117188 464.847656 801.199219 460.128906 801.199219 454.964844 L 801.199219 269.546875 C 801.199219 264.308594 803.117188 259.515625 806.953125 255.828125 C 810.566406 252.363281 815.214844 250.519531 820.230469 250.519531 C 827.605469 250.519531 833.945312 253.910156 837.339844 260.621094 Z M 1180.8125 425.019531 L 1090.460938 425.019531 L 1074.972656 462.339844 C 1073.5 465.953125 1071.066406 469.050781 1067.746094 471.117188 C 1064.574219 473.109375 1061.035156 474.066406 1057.347656 474.066406 C 1050.265625 474.066406 1044.21875 470.746094 1040.898438 464.332031 C 1038.023438 458.875 1037.65625 452.824219 1040.089844 447.074219 L 1117.605469 262.984375 C 1120.847656 255.238281 1127.191406 250.519531 1135.746094 250.519531 C 1144.15625 250.519531 1150.351562 255.386719 1153.523438 262.984375 L 1231.332031 447.367188 C 1233.914062 453.414062 1233.546875 459.683594 1230.003906 465.289062 C 1226.390625 470.894531 1220.785156 474.066406 1214.074219 474.066406 C 1210.386719 474.066406 1206.847656 473.109375 1203.675781 471.117188 C 1200.355469 468.976562 1197.699219 466.027344 1196.152344 462.265625 Z M 471.59375 355.988281 L 501.832031 355.988281 C 508.765625 355.988281 515.550781 354.804688 521.671875 351.5625 C 527.128906 348.757812 531.554688 344.921875 534.800781 339.761719 C 538.121094 334.597656 539.519531 328.917969 539.519531 322.871094 C 539.519531 316.378906 538.121094 310.183594 534.726562 304.652344 C 531.480469 299.34375 527.128906 295.285156 521.597656 292.335938 C 515.476562 289.089844 508.765625 287.839844 501.832031 287.839844 L 471.59375 287.839844 Z M 722.136719 389.765625 L 691.601562 315.863281 L 660.921875 389.765625 Z M 1166.28125 389.765625 L 1135.820312 315.863281 L 1105.066406 389.765625 Z M 1166.28125 389.765625 " fill-opacity="1" fill-rule="evenodd"/></svg>