<svg xmlns="http://www.w3.org/2000/svg" xmlns:xlink="http://www.w3.org/1999/xlink" width="600" zoomAndPan="magnify" viewBox="0 0 450 89.999999" height="120" preserveAspectRatio="xMidYMid meet" version="1.0"><defs><g/></defs><path fill="#F9F4F4" d="M 352.03125 80.359375 L 349.167969 80.359375 C 348.957031 80.359375 348.757812 80.292969 348.605469 80.140625 C 348.453125 79.988281 348.378906 79.796875 348.378906 79.589844 C 348.378906 79.375 348.453125 79.175781 348.605469 79.027344 C 348.757812 78.875 348.957031 78.804688 349.167969 78.804688 L 356.5625 78.804688 C 356.773438 78.804688 356.972656 78.875 357.125 79.027344 C 357.277344 79.175781 357.347656 79.375 357.347656 79.589844 C 357.347656 79.796875 357.277344 79.988281 357.125 80.140625 C 356.972656 80.292969 356.773438 80.359375 356.5625 80.359375 L 353.683594 80.359375 L 353.683594 89.03125 C 353.683594 89.25 353.601562 89.449219 353.449219 89.609375 C 353.292969 89.773438 353.085938 89.859375 352.859375 89.859375 C 352.632812 89.859375 352.429688 89.773438 352.273438 89.609375 C 352.117188 89.453125 352.03125 89.257812 352.03125 89.03125 Z M 359.929688 80.417969 L 359.929688 83.5 L 363.8125 83.5 C 364.035156 83.5 364.238281 83.570312 364.398438 83.734375 C 364.554688 83.894531 364.632812 84.089844 364.632812 84.308594 C 364.632812 84.53125 364.554688 84.730469 364.398438 84.882812 C 364.238281 85.046875 364.035156 85.121094 363.8125 85.121094 L 359.929688 85.121094 L 359.929688 88.242188 L 365.378906 88.242188 C 365.597656 88.242188 365.792969 88.320312 365.953125 88.480469 C 366.109375 88.628906 366.199219 88.824219 366.199219 89.042969 C 366.199219 89.273438 366.113281 89.480469 365.945312 89.632812 C 365.789062 89.78125 365.589844 89.859375 365.378906 89.859375 L 359.101562 89.859375 C 358.875 89.859375 358.671875 89.78125 358.515625 89.621094 C 358.351562 89.457031 358.277344 89.257812 358.277344 89.03125 L 358.277344 79.628906 C 358.277344 79.402344 358.351562 79.199219 358.515625 79.042969 C 358.671875 78.878906 358.875 78.804688 359.101562 78.804688 L 365.378906 78.804688 C 365.589844 78.804688 365.789062 78.878906 365.945312 79.027344 C 366.113281 79.175781 366.199219 79.386719 366.199219 79.617188 C 366.199219 79.835938 366.109375 80.035156 365.953125 80.1875 C 365.792969 80.339844 365.597656 80.417969 365.378906 80.417969 Z M 370.164062 84.207031 L 367.21875 80.105469 C 367.09375 79.945312 367.035156 79.753906 367.050781 79.550781 C 367.0625 79.351562 367.136719 79.175781 367.277344 79.03125 C 367.421875 78.875 367.621094 78.804688 367.832031 78.804688 C 368.09375 78.804688 368.316406 78.90625 368.476562 79.109375 L 368.480469 79.109375 L 371.269531 82.976562 L 374.105469 79.109375 L 374.109375 79.109375 C 374.265625 78.90625 374.492188 78.804688 374.746094 78.804688 C 374.964844 78.804688 375.167969 78.878906 375.316406 79.042969 C 375.445312 79.1875 375.519531 79.371094 375.535156 79.5625 C 375.546875 79.757812 375.5 79.945312 375.382812 80.105469 L 372.355469 84.214844 L 375.472656 88.53125 C 375.597656 88.6875 375.652344 88.878906 375.648438 89.082031 C 375.640625 89.285156 375.566406 89.464844 375.433594 89.617188 C 375.285156 89.785156 375.078125 89.859375 374.851562 89.859375 C 374.738281 89.859375 374.628906 89.832031 374.519531 89.785156 C 374.402344 89.734375 374.304688 89.65625 374.222656 89.558594 L 374.214844 89.554688 L 371.257812 85.460938 L 368.234375 89.582031 L 368.222656 89.601562 C 368.0625 89.769531 367.855469 89.859375 367.621094 89.859375 C 367.40625 89.859375 367.195312 89.785156 367.042969 89.628906 C 366.910156 89.480469 366.835938 89.300781 366.824219 89.105469 C 366.808594 88.890625 366.875 88.691406 367 88.53125 Z M 379.5 80.359375 L 376.632812 80.359375 C 376.417969 80.359375 376.222656 80.292969 376.070312 80.140625 C 375.921875 79.988281 375.851562 79.796875 375.851562 79.589844 C 375.851562 79.375 375.917969 79.175781 376.070312 79.027344 C 376.222656 78.875 376.417969 78.804688 376.632812 78.804688 L 384.03125 78.804688 C 384.242188 78.804688 384.441406 78.875 384.59375 79.027344 C 384.746094 79.175781 384.8125 79.375 384.8125 79.589844 C 384.8125 79.796875 384.738281 79.988281 384.59375 80.140625 C 384.441406 80.292969 384.242188 80.359375 384.03125 80.359375 L 381.152344 80.359375 L 381.152344 89.03125 C 381.152344 89.25 381.074219 89.449219 380.921875 89.609375 C 380.757812 89.773438 380.554688 89.859375 380.324219 89.859375 C 380.097656 89.859375 379.902344 89.773438 379.742188 89.609375 C 379.585938 89.453125 379.5 89.257812 379.5 89.03125 Z M 386.570312 89.859375 C 386.34375 89.859375 386.136719 89.78125 385.980469 89.621094 C 385.820312 89.457031 385.742188 89.257812 385.742188 89.03125 L 385.742188 79.628906 C 385.742188 79.402344 385.820312 79.199219 385.980469 79.042969 C 386.136719 78.878906 386.34375 78.804688 386.570312 78.804688 C 386.796875 78.804688 387 78.878906 387.15625 79.042969 C 387.320312 79.199219 387.394531 79.402344 387.394531 79.628906 L 387.394531 89.03125 C 387.394531 89.257812 387.320312 89.457031 387.15625 89.621094 C 387 89.78125 386.796875 89.859375 386.570312 89.859375 Z M 391.109375 88.257812 L 396.035156 88.257812 C 396.253906 88.257812 396.453125 88.332031 396.609375 88.480469 C 396.777344 88.628906 396.863281 88.832031 396.863281 89.058594 C 396.863281 89.285156 396.777344 89.480469 396.609375 89.640625 C 396.453125 89.78125 396.253906 89.859375 396.035156 89.859375 L 390.289062 89.859375 C 390.0625 89.859375 389.867188 89.78125 389.707031 89.621094 C 389.546875 89.464844 389.460938 89.261719 389.460938 89.03125 L 389.460938 79.628906 C 389.460938 79.402344 389.546875 79.207031 389.703125 79.046875 C 389.859375 78.890625 390.0625 78.804688 390.289062 78.804688 C 390.507812 78.804688 390.710938 78.890625 390.867188 79.046875 C 391.027344 79.207031 391.109375 79.402344 391.109375 79.628906 Z M 391.109375 88.257812 " fill-opacity="1" fill-rule="evenodd"/><path fill="#F9F4F4" d="M 325.765625 55.945312 C 325.46875 55.945312 323.886719 56.320312 323.429688 56.484375 C 318.054688 58.402344 312.425781 59.503906 307.355469 62.027344 C 306.996094 62.210938 307.210938 62.785156 307.222656 63.007812 C 308.566406 64.96875 309.699219 64.777344 312.511719 63.816406 C 315.121094 62.863281 320.71875 61.691406 321.660156 61.398438 C 325.96875 60.070312 332.027344 55.882812 325.765625 55.945312 Z M 325.765625 55.945312 " fill-opacity="1" fill-rule="evenodd"/><path fill="#F9F4F4" d="M 336.527344 24.449219 C 338.257812 23.296875 343.535156 21.035156 341.496094 18.554688 C 338.398438 17.253906 336.292969 21.5 333.328125 22.554688 C 332.777344 22.75 330.753906 23.539062 330.21875 24.226562 C 328.207031 26.800781 325.585938 31.496094 329.089844 31.597656 C 332.945312 31.066406 334.132812 26.542969 336.527344 24.449219 Z M 336.527344 24.449219 " fill-opacity="1" fill-rule="evenodd"/><path fill="#F9F4F4" d="M 345.886719 46.890625 C 339.652344 47.714844 327.902344 57.792969 339.726562 54.148438 C 340.296875 53.980469 342.140625 53.5 342.472656 53.402344 C 345.511719 52.554688 351.441406 47.335938 345.886719 46.890625 Z M 345.886719 46.890625 " fill-opacity="1" fill-rule="evenodd"/><path fill="#F9F4F4" d="M 379.992188 12.914062 C 382.738281 11.0625 378.285156 9.835938 375.195312 8.707031 C 374.183594 8.335938 371.570312 7.863281 371 7.976562 C 357.445312 10.898438 375.539062 13.34375 379.992188 12.914062 Z M 379.992188 12.914062 " fill-opacity="1" fill-rule="evenodd"/><path fill="#F9F4F4" d="M 319.164062 66.496094 C 316.84375 68.59375 324.566406 70.703125 326.960938 69.886719 C 334.410156 67.441406 325.355469 65.601562 320.980469 65.875 C 320.625 65.898438 319.375 66.304688 319.164062 66.496094 Z M 319.164062 66.496094 " fill-opacity="1" fill-rule="evenodd"/><path fill="#F9F4F4" d="M 345 68.644531 C 343.078125 68.546875 341.164062 68.472656 339.351562 68.394531 C 338.605469 68.492188 337.953125 68.519531 337.332031 68.652344 C 336.359375 68.863281 335.847656 70.25 336.542969 70.828125 C 337.148438 71.3125 337.867188 71.816406 338.589844 71.9375 C 339.929688 72.164062 341.320312 72.242188 342.691406 72.175781 C 343.726562 72.117188 344.765625 71.773438 345.765625 71.480469 C 346.070312 71.386719 346.398438 71.082031 346.554688 70.789062 C 346.910156 70.125 345.855469 68.6875 345 68.644531 Z M 345 68.644531 " fill-opacity="1" fill-rule="evenodd"/><path fill="#F9F4F4" d="M 317.910156 48.898438 C 318.101562 48.800781 318.71875 48.125 318.804688 47.917969 C 319.734375 45.757812 320.855469 43.699219 321.890625 41.5625 C 322.019531 41.285156 322.117188 40.441406 322.03125 40.304688 C 319 35.804688 312.609375 51.351562 317.910156 48.898438 Z M 317.910156 48.898438 " fill-opacity="1" fill-rule="evenodd"/><path fill="#F9F4F4" d="M 395.070312 17.429688 C 394.660156 11.269531 384.925781 8.621094 390.851562 16.226562 C 392.058594 17.367188 393.78125 19.523438 395.070312 17.429688 Z M 395.070312 17.429688 " fill-opacity="1" fill-rule="evenodd"/><path fill="#F9F4F4" d="M 397.550781 23.125 C 394.910156 22.136719 393.105469 24.464844 391.386719 26.199219 C 389.210938 27.039062 387.09375 27.5625 386.125 30.222656 C 387.484375 34.859375 398.648438 26.449219 397.550781 23.125 Z M 397.550781 23.125 " fill-opacity="1" fill-rule="evenodd"/><path fill="#F9F4F4" d="M 387.019531 39.996094 C 385.222656 38.199219 383.070312 36.789062 380.554688 35.777344 C 378.035156 34.761719 375.28125 34.253906 372.289062 34.253906 C 369.933594 34.253906 367.648438 34.464844 365.40625 34.886719 C 363.167969 35.304688 360.988281 36.035156 358.871094 37.09375 L 358.59375 37.09375 L 358.59375 11.648438 C 358.59375 11.5625 358.515625 11.367188 358.359375 11.0625 C 358.195312 10.757812 358.070312 10.539062 357.976562 10.410156 C 357.601562 9.855469 357.1875 9.5 356.730469 9.371094 C 356.273438 9.238281 355.714844 9.164062 355.066406 9.164062 C 354.328125 9.164062 353.601562 9.390625 352.894531 9.855469 C 352.183594 10.320312 351.824219 10.953125 351.824219 11.792969 L 351.824219 72.507812 C 351.824219 73.335938 352.199219 74.015625 352.960938 74.550781 C 353.722656 75.082031 354.453125 75.347656 355.148438 75.347656 C 356.066406 75.347656 356.8125 75.070312 357.394531 74.523438 C 357.976562 73.972656 358.390625 73.296875 358.679688 72.519531 L 358.886719 72.519531 C 361.101562 73.582031 363.304688 74.308594 365.488281 74.734375 C 367.675781 75.148438 369.972656 75.347656 372.375 75.347656 C 375.332031 75.347656 378.050781 74.84375 380.570312 73.824219 C 383.089844 72.8125 385.246094 71.398438 387.039062 69.574219 C 388.835938 67.746094 390.242188 65.582031 391.257812 63.066406 C 392.273438 60.546875 392.777344 57.792969 392.777344 54.800781 C 392.777344 51.765625 392.273438 48.980469 391.257812 46.476562 C 390.222656 43.945312 388.820312 41.789062 387.019531 39.996094 Z M 384.847656 60.394531 C 384.183594 62.058594 383.242188 63.484375 382.046875 64.6875 C 380.847656 65.886719 379.414062 66.828125 377.75 67.492188 C 376.085938 68.160156 374.265625 68.503906 372.289062 68.503906 C 371.226562 68.503906 370.132812 68.453125 369.003906 68.355469 C 367.871094 68.257812 366.75 68.074219 365.648438 67.769531 C 364.550781 67.464844 363.496094 67.054688 362.503906 66.523438 C 361.519531 65.988281 360.65625 65.289062 359.914062 64.417969 C 359.6875 64.089844 359.417969 63.675781 359.113281 63.171875 C 358.808594 62.664062 358.667969 62.203125 358.667969 61.785156 L 358.667969 47.667969 C 358.667969 47.476562 358.773438 47.195312 358.984375 46.808594 C 359.191406 46.414062 359.34375 46.101562 359.429688 45.871094 C 360.023438 44.859375 360.824219 44.042969 361.8125 43.414062 C 362.800781 42.785156 363.882812 42.3125 365.0625 41.960938 C 366.238281 41.617188 367.433594 41.382812 368.660156 41.269531 C 369.882812 41.152344 371.027344 41.09375 372.082031 41.09375 C 374.148438 41.09375 376.03125 41.421875 377.714844 42.0625 C 379.394531 42.710938 380.847656 43.628906 382.074219 44.828125 C 383.296875 46.023438 384.226562 47.476562 384.875 49.191406 C 385.523438 50.898438 385.84375 52.789062 385.84375 54.859375 C 385.84375 56.890625 385.511719 58.734375 384.847656 60.394531 Z M 384.847656 60.394531 " fill-opacity="1" fill-rule="evenodd"/><path fill="#F9F4F4" d="M 302.460938 59.308594 C 301.378906 59.371094 300.738281 60.160156 300.964844 61.222656 C 301.070312 61.707031 301.273438 62.191406 301.539062 62.609375 C 302.601562 64.261719 302.621094 64.484375 304.234375 65.574219 C 304.257812 65.589844 304.308594 65.578125 304.308594 65.578125 C 304.433594 65.003906 305.265625 63.945312 304.761719 63.488281 C 304.011719 62.816406 303.355469 62.058594 302.820312 61.171875 C 305.203125 61.714844 308.808594 64.753906 309.378906 66.308594 C 308.953125 66.175781 308.597656 66.050781 308.09375 65.886719 C 308.011719 66.402344 307.863281 66.867188 307.78125 67.363281 C 307.734375 67.65625 307.835938 67.808594 308.125 67.898438 C 308.550781 68.046875 309.023438 68.167969 309.378906 68.429688 C 318.617188 75.160156 327.851562 81.914062 337.074219 88.679688 C 337.636719 89.097656 338.246094 89.171875 338.9375 89.316406 C 338.640625 88.671875 338.433594 88.089844 337.898438 87.644531 C 329.699219 80.839844 321.515625 74.027344 313.335938 67.210938 C 312.246094 66.304688 311.136719 65.441406 310.28125 64.253906 C 308.921875 62.363281 307.054688 61.007812 304.984375 59.960938 C 304.195312 59.566406 303.375 59.257812 302.460938 59.308594 Z M 302.460938 59.308594 " fill-opacity="1" fill-rule="evenodd"/><path fill="#F9F4F4" d="M 306.519531 83.679688 C 306.894531 83.417969 307.109375 82.585938 307.042969 82.046875 C 306.40625 76.84375 306.015625 71.679688 307.746094 66.597656 C 307.820312 66.359375 307.800781 65.949219 307.648438 65.796875 C 306.984375 65.117188 306.253906 64.496094 305.539062 63.855469 C 305.378906 64.035156 305.3125 64.078125 305.285156 64.148438 C 305.160156 64.421875 305.035156 64.699219 304.929688 64.976562 C 302.71875 70.84375 303.058594 76.867188 303.925781 82.917969 C 303.972656 83.25 304.355469 83.742188 304.648438 83.796875 C 305.253906 83.902344 306.050781 83.976562 306.519531 83.679688 Z M 306.519531 83.679688 " fill-opacity="1" fill-rule="evenodd"/><g fill="#F9F4F4" fill-opacity="1"><g transform="translate(49.91567, 72.546934)"><g><path d="M 37.578125 -51.765625 L 37.578125 -46.265625 L 23.46875 -46.265625 L 23.46875 0 L 16.703125 0 L 16.703125 -46.265625 L 2.53125 -46.265625 L 2.53125 -51.765625 Z M 37.578125 -51.765625 "/></g></g></g><g fill="#F9F4F4" fill-opacity="1"><g transform="translate(90.091984, 72.546934)"><g><path d="M 12.484375 -34.09375 C 13.671875 -36.414062 15.363281 -38.21875 17.5625 -39.5 C 19.769531 -40.789062 22.457031 -41.4375 25.625 -41.4375 L 25.625 -34.453125 L 23.84375 -34.453125 C 16.269531 -34.453125 12.484375 -30.34375 12.484375 -22.125 L 12.484375 0 L 5.71875 0 L 5.71875 -40.703125 L 12.484375 -40.703125 Z M 12.484375 -34.09375 "/></g></g></g><g fill="#F9F4F4" fill-opacity="1"><g transform="translate(117.792122, 72.546934)"><g><path d="M 3.1875 -20.5 C 3.1875 -24.65625 4.03125 -28.304688 5.71875 -31.453125 C 7.40625 -34.597656 9.71875 -37.035156 12.65625 -38.765625 C 15.601562 -40.492188 18.882812 -41.359375 22.5 -41.359375 C 26.0625 -41.359375 29.15625 -40.59375 31.78125 -39.0625 C 34.40625 -37.53125 36.363281 -35.597656 37.65625 -33.265625 L 37.65625 -40.703125 L 44.484375 -40.703125 L 44.484375 0 L 37.65625 0 L 37.65625 -7.578125 C 36.3125 -5.203125 34.316406 -3.234375 31.671875 -1.671875 C 29.023438 -0.109375 25.941406 0.671875 22.421875 0.671875 C 18.804688 0.671875 15.539062 -0.21875 12.625 -2 C 9.707031 -3.78125 7.40625 -6.28125 5.71875 -9.5 C 4.03125 -12.71875 3.1875 -16.382812 3.1875 -20.5 Z M 37.65625 -20.421875 C 37.65625 -23.492188 37.035156 -26.164062 35.796875 -28.4375 C 34.554688 -30.71875 32.882812 -32.460938 30.78125 -33.671875 C 28.675781 -34.890625 26.363281 -35.5 23.84375 -35.5 C 21.3125 -35.5 19.003906 -34.90625 16.921875 -33.71875 C 14.847656 -32.53125 13.191406 -30.796875 11.953125 -28.515625 C 10.710938 -26.242188 10.09375 -23.570312 10.09375 -20.5 C 10.09375 -17.375 10.710938 -14.660156 11.953125 -12.359375 C 13.191406 -10.054688 14.847656 -8.296875 16.921875 -7.078125 C 19.003906 -5.867188 21.3125 -5.265625 23.84375 -5.265625 C 26.363281 -5.265625 28.675781 -5.867188 30.78125 -7.078125 C 32.882812 -8.296875 34.554688 -10.054688 35.796875 -12.359375 C 37.035156 -14.660156 37.65625 -17.347656 37.65625 -20.421875 Z M 37.65625 -20.421875 "/></g></g></g><g fill="#F9F4F4" fill-opacity="1"><g transform="translate(167.993947, 72.546934)"><g><path d="M 54.65625 -41.4375 C 57.820312 -41.4375 60.644531 -40.78125 63.125 -39.46875 C 65.601562 -38.15625 67.554688 -36.1875 68.984375 -33.5625 C 70.421875 -30.9375 71.140625 -27.742188 71.140625 -23.984375 L 71.140625 0 L 64.46875 0 L 64.46875 -23.015625 C 64.46875 -27.078125 63.460938 -30.1875 61.453125 -32.34375 C 59.453125 -34.5 56.742188 -35.578125 53.328125 -35.578125 C 49.804688 -35.578125 47.003906 -34.445312 44.921875 -32.1875 C 42.847656 -29.9375 41.8125 -26.679688 41.8125 -22.421875 L 41.8125 0 L 35.125 0 L 35.125 -23.015625 C 35.125 -27.078125 34.117188 -30.1875 32.109375 -32.34375 C 30.109375 -34.5 27.398438 -35.578125 23.984375 -35.578125 C 20.472656 -35.578125 17.675781 -34.445312 15.59375 -32.1875 C 13.519531 -29.9375 12.484375 -26.679688 12.484375 -22.421875 L 12.484375 0 L 5.71875 0 L 5.71875 -40.703125 L 12.484375 -40.703125 L 12.484375 -34.828125 C 13.816406 -36.960938 15.609375 -38.597656 17.859375 -39.734375 C 20.109375 -40.867188 22.597656 -41.4375 25.328125 -41.4375 C 28.742188 -41.4375 31.765625 -40.664062 34.390625 -39.125 C 37.015625 -37.59375 38.96875 -35.34375 40.25 -32.375 C 41.382812 -35.25 43.265625 -37.476562 45.890625 -39.0625 C 48.515625 -40.644531 51.4375 -41.4375 54.65625 -41.4375 Z M 54.65625 -41.4375 "/></g></g></g><g fill="#F9F4F4" fill-opacity="1"><g transform="translate(244.48488, 72.546934)"><g><path d="M 3.1875 -20.5 C 3.1875 -24.65625 4.03125 -28.304688 5.71875 -31.453125 C 7.40625 -34.597656 9.71875 -37.035156 12.65625 -38.765625 C 15.601562 -40.492188 18.882812 -41.359375 22.5 -41.359375 C 26.0625 -41.359375 29.15625 -40.59375 31.78125 -39.0625 C 34.40625 -37.53125 36.363281 -35.597656 37.65625 -33.265625 L 37.65625 -40.703125 L 44.484375 -40.703125 L 44.484375 0 L 37.65625 0 L 37.65625 -7.578125 C 36.3125 -5.203125 34.316406 -3.234375 31.671875 -1.671875 C 29.023438 -0.109375 25.941406 0.671875 22.421875 0.671875 C 18.804688 0.671875 15.539062 -0.21875 12.625 -2 C 9.707031 -3.78125 7.40625 -6.28125 5.71875 -9.5 C 4.03125 -12.71875 3.1875 -16.382812 3.1875 -20.5 Z M 37.65625 -20.421875 C 37.65625 -23.492188 37.035156 -26.164062 35.796875 -28.4375 C 34.554688 -30.71875 32.882812 -32.460938 30.78125 -33.671875 C 28.675781 -34.890625 26.363281 -35.5 23.84375 -35.5 C 21.3125 -35.5 19.003906 -34.90625 16.921875 -33.71875 C 14.847656 -32.53125 13.191406 -30.796875 11.953125 -28.515625 C 10.710938 -26.242188 10.09375 -23.570312 10.09375 -20.5 C 10.09375 -17.375 10.710938 -14.660156 11.953125 -12.359375 C 13.191406 -10.054688 14.847656 -8.296875 16.921875 -7.078125 C 19.003906 -5.867188 21.3125 -5.265625 23.84375 -5.265625 C 26.363281 -5.265625 28.675781 -5.867188 30.78125 -7.078125 C 32.882812 -8.296875 34.554688 -10.054688 35.796875 -12.359375 C 37.035156 -14.660156 37.65625 -17.347656 37.65625 -20.421875 Z M 37.65625 -20.421875 "/></g></g></g></svg>